<?xml version="1.0" encoding="utf-8"?>
<!-- Generator: Adobe Illustrator 21.0.2, SVG Export Plug-In . SVG Version: 6.00 Build 0)  -->
<svg version="1.1" id="Layer_1" xmlns="http://www.w3.org/2000/svg" xmlns:xlink="http://www.w3.org/1999/xlink" x="0px" y="0px"
	 viewBox="0 0 792 612" style="enable-background:new 0 0 792 612;" xml:space="preserve">
<style type="text/css">
	.st0{fill:#FFFFFF;}
</style>
<g>
	<g>
		<path class="st0" d="M468.6,398.8c-43,0-81.8-23.8-101.8-60.8c-19.9,6.7-37,19.3-49.2,35.7c-10.1-5.8-21.8-9.1-34.4-9.1
			c-38.4,0-69.5,31.1-69.5,69.5h286.6c0-12.4-2.2-24.3-6.3-35.3L468.6,398.8L468.6,398.8z"/>
		<path class="st0" d="M558.5,386.8c0.4-1.3,0.6-2.7,0.6-4.2c0-6.1-3.3-11.3-8.3-14.1l-39.5-22.2c13.3-16.8,13.9-40.8,0.7-58.4
			l-64.9-86.5c-25.1,25.1-34.9,59.7-29.5,92.2L213.8,179c16.9,60.9,71.1,101.3,131,103.6c2.6,6.9,15.9,42.3,15.9,42.3
			c1.8,4.5,3.8,8.9,6,13.1c0,0,0,0,0.1,0c10.1-3.4,20.9-5.3,32.2-5.3c43.6,0,80.7,27.5,95,66.1h85.5l0,0L558.5,386.8z M543,387.9
			c-2.9,0-5.2-2.3-5.2-5.2c0-2.9,2.3-5.2,5.2-5.2s5.2,2.3,5.2,5.2C548.3,385.5,545.9,387.9,543,387.9z"/>
	</g>
	<g>
		<path class="st0" d="M517,413.5h-3.2v-1.1h7.7v1.1h-3.2v8.8H517V413.5z M523.2,412.5h2l3.2,8l3.1-8h2v9.9h-1.3v-8.7l0,0l-3.5,8.7
			H528l-3.5-8.7l0,0v8.7h-1.3V412.5z"/>
	</g>
</g>
</svg>
