<?xml version="1.0" encoding="utf-8"?>
<!-- Generator: Adobe Illustrator 19.1.0, SVG Export Plug-In . SVG Version: 6.00 Build 0)  -->
<svg version="1.1" id="Layer_1" xmlns="http://www.w3.org/2000/svg" xmlns:xlink="http://www.w3.org/1999/xlink" x="0px" y="0px"
	 viewBox="0 0 792 612" style="enable-background:new 0 0 792 612;" xml:space="preserve">
<style type="text/css">
	.st0{fill:#152333;}
	.st1{fill:#00BBE6;}
	.st2{fill:#FFFFFF;}
</style>
<g>
	<g>
		<g>
			<path class="st1" d="M482.8,276.7c-17.9,0-33.8,8.7-43.8,22c-5.5-3.1-11.7-4.9-18.5-4.9c-20.6,0-37.4,16.7-37.4,37.4h154.1
				C537.3,301.1,512.9,276.7,482.8,276.7z"/>
			<path class="st0" d="M568.5,305.8c0.2-0.7,0.3-1.5,0.3-2.2c0-3.3-1.8-6.1-4.4-7.6l-21.2-11.9c7.2-9.1,7.5-21.9,0.4-31.4
				l-34.9-46.5c-13.5,13.5-18.8,32.1-15.9,49.6l-109.6-61.6c9.1,32.7,38.2,54.5,70.4,55.7c1.4,3.7,8.6,22.7,8.6,22.7
				c9.3,23.9,32.3,39.7,58,39.7h59.7v0L568.5,305.8z"/>
			<path class="st2" d="M533.9,312.2c-7.7-20.7-27.7-35.5-51.1-35.5c-6.1,0-11.9,1-17.3,2.8c10.8,19.9,31.6,32.7,54.7,32.7H533.9z"
				/>
			<path class="st2" d="M533.9,312.2c-7.7-20.7-27.7-35.5-51.1-35.5c-6.1,0-11.9,1-17.3,2.8c10.8,19.9,31.6,32.7,54.7,32.7H533.9z"
				/>
		</g>
		<circle class="st2" cx="560.2" cy="303.6" r="2.8"/>
	</g>
	<g>
		<path d="M223.8,357.6V382l23-24.5h16.2l-23,23.3l25.3,35.7H249L231.3,390l-7.4,7.5v19h-13v-59H223.8z"/>
		<path d="M296.7,357.6v59h-13v-59H296.7z"/>
		<path d="M315.9,368.5v-10.9h48.3v10.9h-17.7v48.1h-13v-48.1H315.9z"/>
		<path d="M426.9,412c-4.5,3.9-10.6,5.8-18.5,5.8c-8,0-14.2-1.9-18.5-5.8c-4.4-3.9-6.6-9.8-6.6-17.8v-36.7h13v36.7
			c0,1.6,0.1,3.2,0.4,4.7c0.3,1.5,0.9,2.9,1.7,4.1c0.9,1.2,2.1,2.1,3.7,2.9c1.6,0.7,3.7,1.1,6.3,1.1c4.6,0,7.8-1,9.6-3.1
			c1.8-2.1,2.6-5.3,2.6-9.7v-36.7h13v36.7C433.5,402.2,431.3,408.2,426.9,412z"/>
		<path d="M559.1,357.6l22.1,59h-13.5l-4.5-13.1h-22.1l-4.6,13.1h-13.1l22.3-59H559.1z M559.8,393.8l-7.4-21.6h-0.2l-7.7,21.6H559.8
			z"/>
		<g>
			<path d="M485.3,357.6c3.7,0,6.8,0.5,9.4,1.6c2.6,1.1,4.7,2.5,6.3,4.3c1.6,1.8,2.8,3.8,3.6,6c0.7,2.3,1.1,4.6,1.1,7
				c0,2.4-0.4,4.7-1.1,7c-0.7,2.3-1.9,4.3-3.6,6.1c-1.6,1.8-3.7,3.2-6.3,4.3c-2.6,1.1-5.7,1.6-9.4,1.6h-13.6v21.2h-13v-59H485.3z
				 M481.7,385.3c1.5,0,2.9-0.1,4.3-0.3c1.4-0.2,2.6-0.6,3.6-1.3c1-0.6,1.9-1.5,2.5-2.7c0.6-1.2,0.9-2.7,0.9-4.5
				c0-1.9-0.3-3.4-0.9-4.5c-0.6-1.2-1.5-2.1-2.5-2.7c-1-0.6-2.3-1.1-3.6-1.3c-1.4-0.2-2.8-0.3-4.3-0.3h-10.1v17.7H481.7z"/>
			<polyline points="492.9,387.7 506.8,416.5 493.3,416.5 481.3,390 			"/>
		</g>
	</g>
</g>
<g>
	<path d="M578.5,358.5h-3.2v-1.1h7.7v1.1h-3.2v8.8h-1.3V358.5z M584.7,357.5h2l3.2,8l3.1-8h2v9.9h-1.3v-8.7h0l-3.5,8.7h-0.7
		l-3.5-8.7h0v8.7h-1.3V357.5z"/>
</g>
</svg>
